# xmcd CD database file generated by Grip 3.2.0
# 
# Track frame offsets:
#       150
#       20277
#       41377
#       61194
#       78147
#       97584
#       113915
#       131979
#       154389
#       171464
# 
# Disc length: 2524 seconds
# 
# Revision: 0
# Processed by: cddbd v1.5.2PL0 Copyright (c) Steve Scherf et al.
# Submitted via: Grip 3.2.0
# 
DISCID=7509da0a
DTITLE=Stigma - Concerto for the Undead
DYEAR=2010
DGENRE=country
TTITLE0=Chop His Head Off!
TTITLE1=Prove You Are a Man!
TTITLE2=And They Died Happily Ever After!
TTITLE3=A Monstrous Feeling
TTITLE4=The Undertaker
TTITLE5=What About a Terror Ride
TTITLE6=3000 Years and Still Keeping it Real
TTITLE7=A Grave Situation
TTITLE8=Beat Me Maestro, Eight to the Dead!
TTITLE9=Doctor Skeleton
EXTD=
EXTT0=
EXTT1=
EXTT2=
EXTT3=
EXTT4=
EXTT5=
EXTT6=
EXTT7=
EXTT8=
EXTT9=
PLAYORDER=
